<svg width="34" height="50" viewBox="0 0 34 50" fill="none" xmlns="http://www.w3.org/2000/svg">
<path d="M16.6667 0C7.47686 0 0 7.47686 0 16.6667C0 19.4255 0.689746 22.1608 2.00098 24.587L15.7553 49.4629C15.9384 49.7945 16.2873 50 16.6667 50C17.0461 50 17.395 49.7945 17.5781 49.4629L31.3375 24.5788C32.6437 22.1608 33.3334 19.4254 33.3334 16.6666C33.3334 7.47686 25.8565 0 16.6667 0ZM16.6667 25C12.0718 25 8.3334 21.2616 8.3334 16.6667C8.3334 12.0718 12.0718 8.3334 16.6667 8.3334C21.2616 8.3334 25 12.0718 25 16.6667C25 21.2616 21.2616 25 16.6667 25Z" fill="black"/>
</svg>
