<svg width="50" height="43" viewBox="0 0 50 43" fill="none" xmlns="http://www.w3.org/2000/svg">
<path d="M25.2748 7.732C33.6997 7.817 38.9775 7.278 39.6904 16.88H49.964C49.964 2.005 37.3476 0 25.0073 0C12.6661 0 0.0505981 2.005 0.0505981 16.88H10.2445C11.0332 7.095 16.9199 7.648 25.2748 7.732Z" fill="#010002"/>
<path d="M5.14559 21.662C7.64787 21.662 9.73003 21.816 10.1929 19.285C10.2552 18.941 10.2912 18.551 10.2912 18.1H10.1725H0C0 21.865 2.30389 21.662 5.14559 21.662Z" fill="#010002"/>
<path d="M39.7565 18.1H39.6602C39.6602 18.554 39.6981 18.945 39.7691 19.285C40.2573 21.619 42.3366 21.474 44.8301 21.474C47.6854 21.474 50 21.667 50 18.1H39.7565Z" fill="#010002"/>
<path d="M34.7373 15.536V14.04C34.7373 13.371 33.9875 13.329 33.0617 13.329H31.5494C30.6246 13.329 29.8748 13.371 29.8748 14.04V15.329V16.329H19.1771V15.329V14.04C19.1771 13.371 18.4273 13.329 17.5024 13.329H15.9892C15.0643 13.329 14.3145 13.371 14.3145 14.04V15.536V16.842C11.8774 19.446 3.90273 30.531 3.61292 31.873L3.61681 40.828C3.61681 41.655 4.27131 42.328 5.07558 42.328H43.9762C44.7805 42.328 45.435 41.655 45.435 40.828V31.828C45.1481 30.525 37.1754 19.445 34.7373 16.841V15.536ZM18.65 33.078C17.8671 33.078 17.232 32.426 17.232 31.62C17.232 30.814 17.8671 30.162 18.65 30.162C19.4328 30.162 20.0679 30.814 20.0679 31.62C20.0679 32.426 19.4328 33.078 18.65 33.078ZM18.65 28.078C17.8671 28.078 17.232 27.426 17.232 26.62C17.232 25.814 17.8671 25.162 18.65 25.162C19.4328 25.162 20.0679 25.814 20.0679 26.62C20.0679 27.426 19.4328 28.078 18.65 28.078ZM18.65 23.079C17.8671 23.079 17.232 22.427 17.232 21.621C17.232 20.816 17.8671 20.163 18.65 20.163C19.4328 20.163 20.0679 20.816 20.0679 21.621C20.0679 22.427 19.4328 23.079 18.65 23.079ZM24.4851 33.078C23.7022 33.078 23.0671 32.426 23.0671 31.62C23.0671 30.814 23.7022 30.162 24.4851 30.162C25.2689 30.162 25.903 30.814 25.903 31.62C25.903 32.426 25.2689 33.078 24.4851 33.078ZM24.4851 28.078C23.7022 28.078 23.0671 27.426 23.0671 26.62C23.0671 25.814 23.7022 25.162 24.4851 25.162C25.2689 25.162 25.903 25.814 25.903 26.62C25.903 27.426 25.2689 28.078 24.4851 28.078ZM24.4851 23.079C23.7022 23.079 23.0671 22.427 23.0671 21.621C23.0671 20.816 23.7022 20.163 24.4851 20.163C25.2689 20.163 25.903 20.816 25.903 21.621C25.903 22.427 25.2689 23.079 24.4851 23.079ZM30.3202 33.078C29.5363 33.078 28.9022 32.426 28.9022 31.62C28.9022 30.814 29.5363 30.162 30.3202 30.162C31.104 30.162 31.7381 30.814 31.7381 31.62C31.7381 32.426 31.104 33.078 30.3202 33.078ZM30.3202 28.078C29.5363 28.078 28.9022 27.426 28.9022 26.62C28.9022 25.814 29.5363 25.162 30.3202 25.162C31.104 25.162 31.7381 25.814 31.7381 26.62C31.7381 27.426 31.104 28.078 30.3202 28.078ZM30.3202 23.079C29.5363 23.079 28.9022 22.427 28.9022 21.621C28.9022 20.816 29.5363 20.163 30.3202 20.163C31.104 20.163 31.7381 20.816 31.7381 21.621C31.7381 22.427 31.104 23.079 30.3202 23.079Z" fill="#010002"/>
</svg>
